<?xml version="1.0" standalone="no"?>
<!DOCTYPE svg PUBLIC "-//W3C//DTD SVG 20010904//EN"
 "http://www.w3.org/TR/2001/REC-SVG-20010904/DTD/svg10.dtd">
<svg version="1.0" xmlns="http://www.w3.org/2000/svg"
 width="1024.000000pt" height="1024.000000pt" viewBox="0 0 1024.000000 1024.000000"
 preserveAspectRatio="xMidYMid meet">
<metadata>
Created by potrace 1.11, written by Peter Selinger 2001-2013
</metadata>
<g transform="translate(0.000000,1024.000000) scale(0.100000,-0.100000)"
fill="#000000" stroke="none">
<path d="M4889 10236 c-2 -2 -58 -7 -124 -11 -119 -7 -133 -8 -230 -20 -83
-11 -308 -44 -335 -50 -14 -3 -61 -12 -105 -21 -44 -8 -84 -17 -90 -18 -5 -2
-28 -6 -50 -10 -22 -4 -53 -12 -70 -17 -16 -4 -88 -25 -160 -45 -693 -195
-1303 -517 -1875 -988 -164 -135 -514 -481 -639 -631 -689 -831 -1074 -1749
-1187 -2830 -21 -198 -24 -698 -5 -895 92 -991 420 -1858 996 -2635 278 -376
680 -776 1065 -1061 292 -217 676 -441 947 -554 84 -35 93 -39 141 -64 17 -9
32 -15 32 -12 0 3 21 -4 48 -15 48 -22 199 -79 217 -83 6 -1 54 -17 107 -34
84 -28 372 -106 432 -118 11 -2 68 -13 125 -25 138 -28 299 -52 426 -65 28 -3
64 -7 80 -9 197 -26 759 -26 980 0 17 2 55 6 85 10 30 3 66 7 80 10 14 2 48 7
75 10 109 13 294 47 405 75 19 5 91 23 160 40 258 65 538 164 800 282 165 75
407 198 452 229 14 11 29 19 32 19 17 0 335 210 461 304 1068 800 1776 1946
1999 3236 102 593 100 1204 -5 1790 -220 1219 -881 2327 -1848 3093 -176 140
-308 233 -486 343 -189 118 -292 174 -471 259 -87 42 -166 80 -175 84 -40 22
-388 156 -429 166 -8 2 -44 13 -80 25 -68 22 -221 66 -297 84 -104 26 -193 46
-218 50 -16 3 -39 8 -50 10 -22 4 -205 35 -245 41 -90 14 -169 23 -255 31 -38
3 -81 8 -95 10 -32 6 -615 15 -621 10z m2681 -2377 c45 -10 63 -22 146 -102
122 -116 149 -161 148 -243 0 -44 -6 -71 -21 -94 -12 -19 -342 -354 -734 -746
-392 -392 -711 -716 -708 -718 3 -3 190 -6 416 -6 l410 -1 45 -28 c91 -58 112
-119 106 -310 -3 -122 -5 -131 -33 -177 -21 -34 -45 -55 -79 -73 l-49 -25
-858 2 c-856 2 -859 2 -904 23 -50 23 -86 64 -104 118 -8 24 -11 276 -11 890
l0 856 23 39 c28 50 85 95 131 106 20 4 98 7 174 6 148 -2 175 -10 229 -68 52
-55 53 -67 53 -510 l0 -413 733 732 c638 637 737 732 772 741 54 14 57 14 115
1z m-2816 -2972 c48 -16 86 -48 114 -97 l27 -45 0 -870 c0 -827 -1 -872 -18
-904 -11 -19 -31 -45 -45 -58 -49 -46 -84 -53 -244 -53 -128 0 -154 3 -187 20
-51 26 -97 82 -110 136 -7 27 -11 186 -11 436 l0 393 -720 -720 c-527 -528
-730 -725 -761 -738 -55 -25 -115 -23 -172 3 -56 26 -219 192 -241 245 -20 48
-20 115 -1 163 11 26 234 255 738 760 l722 722 -400 0 c-229 0 -415 4 -435 10
-49 13 -109 66 -131 114 -15 34 -19 66 -19 186 0 161 11 200 68 253 61 58 33
57 951 56 578 -1 853 -4 875 -12z"/>
</g>
</svg>
