<?xml version="1.0" encoding="UTF-8" standalone="no"?>
<svg
   xmlns:dc="http://purl.org/dc/elements/1.1/"
   xmlns:cc="http://creativecommons.org/ns#"
   xmlns:rdf="http://www.w3.org/1999/02/22-rdf-syntax-ns#"
   xmlns:svg="http://www.w3.org/2000/svg"
   xmlns="http://www.w3.org/2000/svg"
   viewBox="0 0 2400 1600"
   height="1600"
   width="2400"
   xml:space="preserve"
   id="svg2"
   version="1.1">
   <metadata id="metadata8">
       <rdf:RDF>
           <cc:Work rdf:about="">
               <dc:format>image/svg+xml</dc:format>
               <dc:type rdf:resource="http://purl.org/dc/dcmitype/StillImage" />
           </cc:Work>
       </rdf:RDF>
   </metadata>
   <defs id="defs6" />
   <g transform="matrix(1.3333333,0,0,-1.3333333,0,1600)" id="g10">
        <g transform="scale(0.1)" id="g12">
            <g transform="scale(1.10429)" id="g14">
                <path id="path16" style="fill:#ffffff;fill-opacity:1;fill-rule:nonzero;stroke:none" d="M 16300,0 H 0 V 10866.7 H 16300 V 0" />
            </g>
            <path id="path18" style="fill:#000;fill-opacity:1;fill-rule:nonzero;stroke:none" d="M 9850,3550 H 5850 c -130.37,0 -241.6,83.59 -282.86,200 H 5850 7350 c 0,-55.27 44.78,-100 100,-100 h 800 c 55.22,0 100,44.73 100,100 h 1500 282.9 C 10091.6,3633.59 9980.37,3550 9850,3550 Z M 6050,6250 H 9650 V 3950 H 6050 Z m 4200,-2300 h -400 v 2300 c 0,110.3 -89.75,200 -200,200 H 6050 c -110.3,0 -200,-89.7 -200,-200 V 3950 h -400 c -55.22,0 -100,-44.73 -100,-100 0,-275.68 224.32,-500 500,-500 h 4000 c 275.7,0 500,224.32 500,500 0,55.27 -44.7,100 -100,100" />
            <path id="path20" style="fill:#000;fill-opacity:1;fill-rule:nonzero;stroke:none" d="M 4650,3550 H 3050 v 2000 l 1600,0.1 z m 0,2200 H 3050 c -110.3,0 -200,-89.75 -200,-200 V 3550 c 0,-110.25 89.7,-200 200,-200 h 1600 c 110.3,0 200,89.75 200,200 v 2000 c 0,110.25 -89.7,200 -200,200" />
            <path id="path22" style="fill:#000;fill-opacity:1;fill-rule:nonzero;stroke:none" d="m 3850,3650 c 69.04,0 125,55.97 125,125 0,69.03 -55.96,125 -125,125 -69.04,0 -125,-55.97 -125,-125 0,-69.03 55.96,-125 125,-125" />
            <path id="path24" style="fill:#000;fill-opacity:1;fill-rule:nonzero;stroke:none" d="m 2150,3550 h -700 v 1600 l 150,0.02 c 0,-0.01 0,-0.01 0,-0.02 0,-55.27 44.78,-100 100,-100 h 200 c 55.22,0 100,44.73 100,100 0,0.02 -0.02,0.06 -0.02,0.08 l 150.02,0.02 z m 0,1800 h -700 c -110.3,0 -200,-89.75 -200,-200 V 3550 c 0,-110.25 89.7,-200 200,-200 h 700 c 110.3,0 200,89.75 200,200 v 1600 c 0,110.25 -89.7,200 -200,200" />
            <g transform="scale(1.02761)" id="g26">
                <path id="path28" style="fill:#000;fill-opacity:1;fill-rule:nonzero;stroke:none" d="m 16008.1,4330.45 h -2335.6 -973.1 -2335.5 c -53.7,0 -97.3,43.61 -97.3,97.31 v 389.26 h 5838.8 v -389.26 c 0,-53.7 -43.6,-97.31 -97.3,-97.31 z m -2334.6,-792.29 c 3,-20.82 12.7,-40.1 27.6,-55.02 l 28.5,-28.51 h -1087.2 l 28.5,28.51 c 14.9,14.92 24.5,34.2 27.5,55.02 l 85.4,597.66 h 804.4 z m -3309.6,4684.83 h 5644.2 c 53.7,0 97.3,-43.67 97.3,-97.32 V 5011.64 h -5838.8 v 3114.03 c 0,53.65 43.6,97.32 97.3,97.32 z m 5644.2,194.62 h -5644.2 c -161,0 -292,-130.95 -292,-291.94 V 4427.76 c 0,-160.98 131,-291.94 292,-291.94 h 2223.3 l -76.8,-537.97 -171.7,-171.74 c -27.9,-27.84 -36.2,-69.65 -21.2,-106.05 15,-36.39 50.7,-60.06 90,-60.06 h 1557 c 39.3,0 74.9,23.67 89.9,60.06 15.1,36.4 6.7,78.21 -21.1,106.05 l -171.8,171.74 -76.8,537.97 h 2223.4 c 160.9,0 291.9,130.96 291.9,291.94 v 3697.91 c 0,160.99 -131,291.94 -291.9,291.94" />
            </g>
            <path id="path30" style="fill:#000;fill-opacity:1;fill-rule:nonzero;stroke:none" d="m 13550,4850 c -82.7,0 -150,-67.29 -150,-150 0,-82.71 67.3,-150 150,-150 82.7,0 150,67.29 150,150 0,82.71 -67.3,150 -150,150" />
        </g>
    </g>
</svg>
